<mxfile host="app.diagrams.net" modified="2020-12-23T07:40:57.622Z" agent="5.0 (Windows)" etag="2xCadnoMVxfHKU1XJ4eH" version="14.1.1" type="github">
  <diagram id="2PJkBT4ptk_el_u-jBm4" name="Page-1">
    <mxGraphModel dx="1626" dy="675" grid="1" gridSize="10" guides="1" tooltips="1" connect="1" arrows="1" fold="1" page="1" pageScale="1" pageWidth="850" pageHeight="1100" math="0" shadow="0">
      <root>
        <mxCell id="0" />
        <mxCell id="1" parent="0" />
        <mxCell id="EQt62Dbtj5ZlUHY3P4BF-2" style="edgeStyle=orthogonalEdgeStyle;rounded=0;orthogonalLoop=1;jettySize=auto;html=1;exitX=1;exitY=0.5;exitDx=0;exitDy=0;" edge="1" parent="1" source="EQt62Dbtj5ZlUHY3P4BF-3">
          <mxGeometry relative="1" as="geometry">
            <mxPoint x="590" y="285.16666666666697" as="targetPoint" />
          </mxGeometry>
        </mxCell>
        <mxCell id="EQt62Dbtj5ZlUHY3P4BF-3" value="&lt;font style=&quot;font-size: 20px&quot;&gt;ESP32&lt;/font&gt;" style="whiteSpace=wrap;html=1;aspect=fixed;" vertex="1" parent="1">
          <mxGeometry x="350" y="195" width="180" height="180" as="geometry" />
        </mxCell>
        <mxCell id="EQt62Dbtj5ZlUHY3P4BF-4" value="&lt;div&gt;OUT&lt;/div&gt;Circuit" style="rounded=0;whiteSpace=wrap;html=1;" vertex="1" parent="1">
          <mxGeometry x="600" y="160" width="60" height="250" as="geometry" />
        </mxCell>
        <mxCell id="EQt62Dbtj5ZlUHY3P4BF-5" style="edgeStyle=orthogonalEdgeStyle;rounded=0;orthogonalLoop=1;jettySize=auto;html=1;exitX=1;exitY=0.5;exitDx=0;exitDy=0;" edge="1" parent="1" source="EQt62Dbtj5ZlUHY3P4BF-6">
          <mxGeometry relative="1" as="geometry">
            <mxPoint x="340" y="285" as="targetPoint" />
          </mxGeometry>
        </mxCell>
        <mxCell id="EQt62Dbtj5ZlUHY3P4BF-6" value="&lt;div&gt;INPUT&lt;br&gt;&lt;/div&gt;Circuit" style="rounded=0;whiteSpace=wrap;html=1;" vertex="1" parent="1">
          <mxGeometry x="220" y="160" width="60" height="250" as="geometry" />
        </mxCell>
        <mxCell id="EQt62Dbtj5ZlUHY3P4BF-7" style="edgeStyle=orthogonalEdgeStyle;rounded=0;orthogonalLoop=1;jettySize=auto;html=1;exitX=1;exitY=0.5;exitDx=0;exitDy=0;" edge="1" parent="1" source="EQt62Dbtj5ZlUHY3P4BF-8">
          <mxGeometry relative="1" as="geometry">
            <mxPoint x="210" y="250" as="targetPoint" />
            <Array as="points">
              <mxPoint x="190" y="190" />
              <mxPoint x="190" y="250" />
            </Array>
          </mxGeometry>
        </mxCell>
        <mxCell id="EQt62Dbtj5ZlUHY3P4BF-8" value="Temp Sensor 1" style="rounded=0;whiteSpace=wrap;html=1;" vertex="1" parent="1">
          <mxGeometry x="30" y="160" width="120" height="60" as="geometry" />
        </mxCell>
        <mxCell id="EQt62Dbtj5ZlUHY3P4BF-9" style="edgeStyle=orthogonalEdgeStyle;rounded=0;orthogonalLoop=1;jettySize=auto;html=1;exitX=1;exitY=0.5;exitDx=0;exitDy=0;" edge="1" parent="1" source="EQt62Dbtj5ZlUHY3P4BF-10">
          <mxGeometry relative="1" as="geometry">
            <mxPoint x="210" y="280" as="targetPoint" />
          </mxGeometry>
        </mxCell>
        <mxCell id="EQt62Dbtj5ZlUHY3P4BF-10" value="Temp Sensor 2" style="rounded=0;whiteSpace=wrap;html=1;" vertex="1" parent="1">
          <mxGeometry x="30" y="240" width="120" height="60" as="geometry" />
        </mxCell>
        <mxCell id="EQt62Dbtj5ZlUHY3P4BF-11" style="edgeStyle=orthogonalEdgeStyle;rounded=0;orthogonalLoop=1;jettySize=auto;html=1;exitX=1;exitY=0.5;exitDx=0;exitDy=0;" edge="1" parent="1" source="EQt62Dbtj5ZlUHY3P4BF-12">
          <mxGeometry relative="1" as="geometry">
            <mxPoint x="210" y="310" as="targetPoint" />
            <Array as="points">
              <mxPoint x="180" y="350" />
              <mxPoint x="180" y="310" />
              <mxPoint x="210" y="310" />
            </Array>
          </mxGeometry>
        </mxCell>
        <mxCell id="EQt62Dbtj5ZlUHY3P4BF-12" value="&lt;div&gt;Humidity Sensor&lt;/div&gt;(Optional)" style="rounded=0;whiteSpace=wrap;html=1;" vertex="1" parent="1">
          <mxGeometry x="30" y="320" width="120" height="60" as="geometry" />
        </mxCell>
        <mxCell id="EQt62Dbtj5ZlUHY3P4BF-13" style="edgeStyle=orthogonalEdgeStyle;rounded=0;orthogonalLoop=1;jettySize=auto;html=1;exitX=1;exitY=0.5;exitDx=0;exitDy=0;" edge="1" parent="1" source="EQt62Dbtj5ZlUHY3P4BF-14">
          <mxGeometry relative="1" as="geometry">
            <mxPoint x="210" y="340" as="targetPoint" />
            <Array as="points">
              <mxPoint x="190" y="430" />
              <mxPoint x="190" y="340" />
              <mxPoint x="210" y="340" />
            </Array>
          </mxGeometry>
        </mxCell>
        <mxCell id="EQt62Dbtj5ZlUHY3P4BF-14" value="Push Button" style="rounded=0;whiteSpace=wrap;html=1;" vertex="1" parent="1">
          <mxGeometry x="30" y="400" width="120" height="60" as="geometry" />
        </mxCell>
        <mxCell id="EQt62Dbtj5ZlUHY3P4BF-15" style="edgeStyle=orthogonalEdgeStyle;rounded=0;orthogonalLoop=1;jettySize=auto;html=1;exitX=1;exitY=0.5;exitDx=0;exitDy=0;" edge="1" parent="1" source="EQt62Dbtj5ZlUHY3P4BF-16">
          <mxGeometry relative="1" as="geometry">
            <mxPoint x="60" y="470" as="targetPoint" />
            <Array as="points">
              <mxPoint y="480" />
              <mxPoint x="60" y="480" />
            </Array>
          </mxGeometry>
        </mxCell>
        <mxCell id="EQt62Dbtj5ZlUHY3P4BF-16" value="Up" style="rounded=0;whiteSpace=wrap;html=1;rotation=-90;" vertex="1" parent="1">
          <mxGeometry x="-45" y="535" width="90" height="30" as="geometry" />
        </mxCell>
        <mxCell id="EQt62Dbtj5ZlUHY3P4BF-17" style="edgeStyle=orthogonalEdgeStyle;rounded=0;orthogonalLoop=1;jettySize=auto;html=1;exitX=1;exitY=0.5;exitDx=0;exitDy=0;" edge="1" parent="1" source="EQt62Dbtj5ZlUHY3P4BF-18">
          <mxGeometry relative="1" as="geometry">
            <mxPoint x="70" y="470" as="targetPoint" />
            <Array as="points">
              <mxPoint x="30" y="485" />
              <mxPoint x="70" y="485" />
            </Array>
          </mxGeometry>
        </mxCell>
        <mxCell id="EQt62Dbtj5ZlUHY3P4BF-18" value="Down" style="rounded=0;whiteSpace=wrap;html=1;rotation=-90;" vertex="1" parent="1">
          <mxGeometry x="-15" y="535" width="90" height="30" as="geometry" />
        </mxCell>
        <mxCell id="EQt62Dbtj5ZlUHY3P4BF-19" style="edgeStyle=orthogonalEdgeStyle;rounded=0;orthogonalLoop=1;jettySize=auto;html=1;exitX=1;exitY=0.5;exitDx=0;exitDy=0;" edge="1" parent="1" source="EQt62Dbtj5ZlUHY3P4BF-20">
          <mxGeometry relative="1" as="geometry">
            <mxPoint x="80" y="470" as="targetPoint" />
            <Array as="points">
              <mxPoint x="60" y="490" />
              <mxPoint x="80" y="490" />
            </Array>
          </mxGeometry>
        </mxCell>
        <mxCell id="EQt62Dbtj5ZlUHY3P4BF-20" value="&lt;font style=&quot;font-size: 20px&quot;&gt;+&lt;/font&gt;" style="rounded=0;whiteSpace=wrap;html=1;rotation=-90;" vertex="1" parent="1">
          <mxGeometry x="15" y="535" width="90" height="30" as="geometry" />
        </mxCell>
        <mxCell id="EQt62Dbtj5ZlUHY3P4BF-21" style="edgeStyle=orthogonalEdgeStyle;rounded=0;orthogonalLoop=1;jettySize=auto;html=1;exitX=1;exitY=0.5;exitDx=0;exitDy=0;" edge="1" parent="1" source="EQt62Dbtj5ZlUHY3P4BF-22">
          <mxGeometry relative="1" as="geometry">
            <mxPoint x="89.85714285714312" y="470" as="targetPoint" />
          </mxGeometry>
        </mxCell>
        <mxCell id="EQt62Dbtj5ZlUHY3P4BF-22" value="&lt;font style=&quot;font-size: 20px&quot;&gt;-&lt;/font&gt;" style="rounded=0;whiteSpace=wrap;html=1;rotation=-90;" vertex="1" parent="1">
          <mxGeometry x="45" y="535" width="90" height="30" as="geometry" />
        </mxCell>
        <mxCell id="EQt62Dbtj5ZlUHY3P4BF-23" style="edgeStyle=orthogonalEdgeStyle;rounded=0;orthogonalLoop=1;jettySize=auto;html=1;exitX=1;exitY=0.5;exitDx=0;exitDy=0;" edge="1" parent="1" source="EQt62Dbtj5ZlUHY3P4BF-24">
          <mxGeometry relative="1" as="geometry">
            <mxPoint x="100" y="470" as="targetPoint" />
            <Array as="points">
              <mxPoint x="120" y="490" />
              <mxPoint x="100" y="490" />
            </Array>
          </mxGeometry>
        </mxCell>
        <mxCell id="EQt62Dbtj5ZlUHY3P4BF-24" value="Back" style="rounded=0;whiteSpace=wrap;html=1;rotation=-90;" vertex="1" parent="1">
          <mxGeometry x="75" y="535" width="90" height="30" as="geometry" />
        </mxCell>
        <mxCell id="EQt62Dbtj5ZlUHY3P4BF-25" style="edgeStyle=orthogonalEdgeStyle;rounded=0;orthogonalLoop=1;jettySize=auto;html=1;exitX=1;exitY=0.5;exitDx=0;exitDy=0;" edge="1" parent="1" source="EQt62Dbtj5ZlUHY3P4BF-26">
          <mxGeometry relative="1" as="geometry">
            <mxPoint x="110" y="470" as="targetPoint" />
            <Array as="points">
              <mxPoint x="150" y="485" />
              <mxPoint x="110" y="485" />
            </Array>
          </mxGeometry>
        </mxCell>
        <mxCell id="EQt62Dbtj5ZlUHY3P4BF-26" value="Foward" style="rounded=0;whiteSpace=wrap;html=1;rotation=-90;" vertex="1" parent="1">
          <mxGeometry x="105" y="535" width="90" height="30" as="geometry" />
        </mxCell>
        <mxCell id="EQt62Dbtj5ZlUHY3P4BF-27" style="edgeStyle=orthogonalEdgeStyle;rounded=0;orthogonalLoop=1;jettySize=auto;html=1;exitX=0.5;exitY=0;exitDx=0;exitDy=0;" edge="1" parent="1" source="EQt62Dbtj5ZlUHY3P4BF-28">
          <mxGeometry relative="1" as="geometry">
            <mxPoint x="439.66666666666697" y="520" as="targetPoint" />
          </mxGeometry>
        </mxCell>
        <mxCell id="EQt62Dbtj5ZlUHY3P4BF-28" value="AC 220-240V" style="rounded=0;whiteSpace=wrap;html=1;" vertex="1" parent="1">
          <mxGeometry x="285" y="540" width="310" height="60" as="geometry" />
        </mxCell>
        <mxCell id="EQt62Dbtj5ZlUHY3P4BF-29" style="edgeStyle=orthogonalEdgeStyle;rounded=0;orthogonalLoop=1;jettySize=auto;html=1;exitX=0.5;exitY=0;exitDx=0;exitDy=0;" edge="1" parent="1" source="EQt62Dbtj5ZlUHY3P4BF-30">
          <mxGeometry relative="1" as="geometry">
            <mxPoint x="439.66666666666697" y="380" as="targetPoint" />
          </mxGeometry>
        </mxCell>
        <mxCell id="EQt62Dbtj5ZlUHY3P4BF-30" value="&lt;div&gt;Regulator&lt;/div&gt;&lt;div&gt;5V &amp;amp; 3V3&lt;br&gt;&lt;/div&gt;" style="rounded=0;whiteSpace=wrap;html=1;" vertex="1" parent="1">
          <mxGeometry x="380" y="400" width="120" height="40" as="geometry" />
        </mxCell>
        <mxCell id="EQt62Dbtj5ZlUHY3P4BF-31" style="edgeStyle=orthogonalEdgeStyle;rounded=0;orthogonalLoop=1;jettySize=auto;html=1;exitX=0.5;exitY=0;exitDx=0;exitDy=0;" edge="1" parent="1" source="EQt62Dbtj5ZlUHY3P4BF-32">
          <mxGeometry relative="1" as="geometry">
            <mxPoint x="439.66666666666697" y="450" as="targetPoint" />
          </mxGeometry>
        </mxCell>
        <mxCell id="EQt62Dbtj5ZlUHY3P4BF-32" value="Power Supply 12V" style="rounded=0;whiteSpace=wrap;html=1;" vertex="1" parent="1">
          <mxGeometry x="380" y="470" width="120" height="40" as="geometry" />
        </mxCell>
        <mxCell id="EQt62Dbtj5ZlUHY3P4BF-33" style="edgeStyle=orthogonalEdgeStyle;rounded=0;orthogonalLoop=1;jettySize=auto;html=1;exitX=1;exitY=0.5;exitDx=0;exitDy=0;" edge="1" parent="1" source="EQt62Dbtj5ZlUHY3P4BF-34">
          <mxGeometry relative="1" as="geometry">
            <mxPoint x="900" y="145.10344827586232" as="targetPoint" />
          </mxGeometry>
        </mxCell>
        <mxCell id="EQt62Dbtj5ZlUHY3P4BF-34" value="Relay 1" style="rounded=0;whiteSpace=wrap;html=1;" vertex="1" parent="1">
          <mxGeometry x="720" y="130" width="120" height="30" as="geometry" />
        </mxCell>
        <mxCell id="EQt62Dbtj5ZlUHY3P4BF-35" style="edgeStyle=orthogonalEdgeStyle;rounded=0;orthogonalLoop=1;jettySize=auto;html=1;exitX=1;exitY=0.5;exitDx=0;exitDy=0;" edge="1" parent="1" source="EQt62Dbtj5ZlUHY3P4BF-36">
          <mxGeometry relative="1" as="geometry">
            <mxPoint x="900" y="185.10344827586232" as="targetPoint" />
          </mxGeometry>
        </mxCell>
        <mxCell id="EQt62Dbtj5ZlUHY3P4BF-36" value="Relay 2" style="rounded=0;whiteSpace=wrap;html=1;" vertex="1" parent="1">
          <mxGeometry x="720" y="170" width="120" height="30" as="geometry" />
        </mxCell>
        <mxCell id="EQt62Dbtj5ZlUHY3P4BF-37" style="edgeStyle=orthogonalEdgeStyle;rounded=0;orthogonalLoop=1;jettySize=auto;html=1;exitX=1;exitY=0.5;exitDx=0;exitDy=0;" edge="1" parent="1" source="EQt62Dbtj5ZlUHY3P4BF-38">
          <mxGeometry relative="1" as="geometry">
            <mxPoint x="900" y="225.10344827586232" as="targetPoint" />
          </mxGeometry>
        </mxCell>
        <mxCell id="EQt62Dbtj5ZlUHY3P4BF-38" value="Relay 3" style="rounded=0;whiteSpace=wrap;html=1;" vertex="1" parent="1">
          <mxGeometry x="720" y="210" width="120" height="30" as="geometry" />
        </mxCell>
        <mxCell id="EQt62Dbtj5ZlUHY3P4BF-39" style="edgeStyle=orthogonalEdgeStyle;rounded=0;orthogonalLoop=1;jettySize=auto;html=1;exitX=1;exitY=0.5;exitDx=0;exitDy=0;" edge="1" parent="1" source="EQt62Dbtj5ZlUHY3P4BF-40">
          <mxGeometry relative="1" as="geometry">
            <mxPoint x="900" y="265.1034482758623" as="targetPoint" />
          </mxGeometry>
        </mxCell>
        <mxCell id="EQt62Dbtj5ZlUHY3P4BF-40" value="Relay 4" style="rounded=0;whiteSpace=wrap;html=1;" vertex="1" parent="1">
          <mxGeometry x="720" y="250" width="120" height="30" as="geometry" />
        </mxCell>
        <mxCell id="EQt62Dbtj5ZlUHY3P4BF-41" style="edgeStyle=orthogonalEdgeStyle;rounded=0;orthogonalLoop=1;jettySize=auto;html=1;exitX=1;exitY=0.5;exitDx=0;exitDy=0;" edge="1" parent="1" source="EQt62Dbtj5ZlUHY3P4BF-42">
          <mxGeometry relative="1" as="geometry">
            <mxPoint x="900" y="305.1034482758623" as="targetPoint" />
          </mxGeometry>
        </mxCell>
        <mxCell id="EQt62Dbtj5ZlUHY3P4BF-42" value="Relay 5" style="rounded=0;whiteSpace=wrap;html=1;" vertex="1" parent="1">
          <mxGeometry x="720" y="290" width="120" height="30" as="geometry" />
        </mxCell>
        <mxCell id="EQt62Dbtj5ZlUHY3P4BF-43" style="edgeStyle=orthogonalEdgeStyle;rounded=0;orthogonalLoop=1;jettySize=auto;html=1;exitX=1;exitY=0.5;exitDx=0;exitDy=0;" edge="1" parent="1" source="EQt62Dbtj5ZlUHY3P4BF-44">
          <mxGeometry relative="1" as="geometry">
            <mxPoint x="900" y="345.1428571428569" as="targetPoint" />
          </mxGeometry>
        </mxCell>
        <mxCell id="EQt62Dbtj5ZlUHY3P4BF-44" value="Relay 6" style="rounded=0;whiteSpace=wrap;html=1;" vertex="1" parent="1">
          <mxGeometry x="720" y="330" width="120" height="30" as="geometry" />
        </mxCell>
        <mxCell id="EQt62Dbtj5ZlUHY3P4BF-45" style="edgeStyle=orthogonalEdgeStyle;rounded=0;orthogonalLoop=1;jettySize=auto;html=1;exitX=1;exitY=0.5;exitDx=0;exitDy=0;" edge="1" parent="1" source="EQt62Dbtj5ZlUHY3P4BF-46">
          <mxGeometry relative="1" as="geometry">
            <mxPoint x="900" y="385.1428571428569" as="targetPoint" />
          </mxGeometry>
        </mxCell>
        <mxCell id="EQt62Dbtj5ZlUHY3P4BF-46" value="Relay 7" style="rounded=0;whiteSpace=wrap;html=1;" vertex="1" parent="1">
          <mxGeometry x="720" y="370" width="120" height="30" as="geometry" />
        </mxCell>
        <mxCell id="EQt62Dbtj5ZlUHY3P4BF-47" style="edgeStyle=orthogonalEdgeStyle;rounded=0;orthogonalLoop=1;jettySize=auto;html=1;exitX=1;exitY=0.5;exitDx=0;exitDy=0;" edge="1" parent="1" source="EQt62Dbtj5ZlUHY3P4BF-48">
          <mxGeometry relative="1" as="geometry">
            <mxPoint x="900" y="425.1428571428569" as="targetPoint" />
          </mxGeometry>
        </mxCell>
        <mxCell id="EQt62Dbtj5ZlUHY3P4BF-48" value="Relay 8" style="rounded=0;whiteSpace=wrap;html=1;" vertex="1" parent="1">
          <mxGeometry x="720" y="410" width="120" height="30" as="geometry" />
        </mxCell>
        <mxCell id="EQt62Dbtj5ZlUHY3P4BF-51" value="&lt;div&gt;Fan 2 - 5&lt;br&gt;&lt;/div&gt;" style="rounded=0;whiteSpace=wrap;html=1;" vertex="1" parent="1">
          <mxGeometry x="910" y="170" width="120" height="150" as="geometry" />
        </mxCell>
        <mxCell id="EQt62Dbtj5ZlUHY3P4BF-52" value="Cooling Pad" style="rounded=0;whiteSpace=wrap;html=1;" vertex="1" parent="1">
          <mxGeometry x="910" y="330" width="120" height="30" as="geometry" />
        </mxCell>
        <mxCell id="EQt62Dbtj5ZlUHY3P4BF-53" value="Heater" style="rounded=0;whiteSpace=wrap;html=1;" vertex="1" parent="1">
          <mxGeometry x="910" y="370" width="120" height="30" as="geometry" />
        </mxCell>
        <mxCell id="EQt62Dbtj5ZlUHY3P4BF-54" value="Alarm" style="rounded=0;whiteSpace=wrap;html=1;" vertex="1" parent="1">
          <mxGeometry x="910" y="410" width="120" height="30" as="geometry" />
        </mxCell>
        <mxCell id="EQt62Dbtj5ZlUHY3P4BF-56" style="edgeStyle=orthogonalEdgeStyle;rounded=0;orthogonalLoop=1;jettySize=auto;html=1;exitX=1;exitY=0.5;exitDx=0;exitDy=0;" edge="1" parent="1" source="EQt62Dbtj5ZlUHY3P4BF-57">
          <mxGeometry relative="1" as="geometry">
            <mxPoint x="120" y="470" as="targetPoint" />
            <Array as="points">
              <mxPoint x="180" y="480" />
              <mxPoint x="120" y="480" />
            </Array>
          </mxGeometry>
        </mxCell>
        <mxCell id="EQt62Dbtj5ZlUHY3P4BF-57" value="Ok" style="rounded=0;whiteSpace=wrap;html=1;rotation=-90;" vertex="1" parent="1">
          <mxGeometry x="135" y="535" width="90" height="30" as="geometry" />
        </mxCell>
        <mxCell id="EQt62Dbtj5ZlUHY3P4BF-58" value="LCD" style="rounded=0;whiteSpace=wrap;html=1;rotation=-90;" vertex="1" parent="1">
          <mxGeometry x="451.25" y="80" width="115" height="30" as="geometry" />
        </mxCell>
        <mxCell id="EQt62Dbtj5ZlUHY3P4BF-59" value="LED Indikator" style="rounded=0;whiteSpace=wrap;html=1;rotation=-90;" vertex="1" parent="1">
          <mxGeometry x="406.25" y="80" width="115" height="30" as="geometry" />
        </mxCell>
        <mxCell id="EQt62Dbtj5ZlUHY3P4BF-60" value="Server" style="rounded=0;whiteSpace=wrap;html=1;rotation=-90;" vertex="1" parent="1">
          <mxGeometry x="361.75" y="80" width="115" height="30" as="geometry" />
        </mxCell>
        <mxCell id="EQt62Dbtj5ZlUHY3P4BF-61" style="edgeStyle=orthogonalEdgeStyle;rounded=0;orthogonalLoop=1;jettySize=auto;html=1;exitX=0;exitY=0.5;exitDx=0;exitDy=0;" edge="1" parent="1" source="EQt62Dbtj5ZlUHY3P4BF-62">
          <mxGeometry relative="1" as="geometry">
            <mxPoint x="371.33333333333303" y="190" as="targetPoint" />
          </mxGeometry>
        </mxCell>
        <mxCell id="EQt62Dbtj5ZlUHY3P4BF-62" value="RTC" style="rounded=0;whiteSpace=wrap;html=1;rotation=-90;" vertex="1" parent="1">
          <mxGeometry x="313.75" y="80" width="115" height="30" as="geometry" />
        </mxCell>
        <mxCell id="EQt62Dbtj5ZlUHY3P4BF-63" value="" style="endArrow=classic;startArrow=classic;html=1;dashed=1;" edge="1" parent="1">
          <mxGeometry width="50" height="50" relative="1" as="geometry">
            <mxPoint x="420" y="190" as="sourcePoint" />
            <mxPoint x="420" y="160" as="targetPoint" />
          </mxGeometry>
        </mxCell>
        <mxCell id="EQt62Dbtj5ZlUHY3P4BF-64" value="" style="endArrow=classic;html=1;" edge="1" parent="1">
          <mxGeometry width="50" height="50" relative="1" as="geometry">
            <mxPoint x="463.6100000000006" y="195" as="sourcePoint" />
            <mxPoint x="463.6100000000006" y="158" as="targetPoint" />
          </mxGeometry>
        </mxCell>
        <mxCell id="EQt62Dbtj5ZlUHY3P4BF-65" value="" style="endArrow=classic;html=1;" edge="1" parent="1">
          <mxGeometry width="50" height="50" relative="1" as="geometry">
            <mxPoint x="508.6100000000006" y="195" as="sourcePoint" />
            <mxPoint x="508.6100000000006" y="158" as="targetPoint" />
          </mxGeometry>
        </mxCell>
        <mxCell id="EQt62Dbtj5ZlUHY3P4BF-66" value="Fan 1" style="rounded=0;whiteSpace=wrap;html=1;" vertex="1" parent="1">
          <mxGeometry x="910" y="130" width="120" height="30" as="geometry" />
        </mxCell>
        <mxCell id="EQt62Dbtj5ZlUHY3P4BF-67" value="" style="endArrow=classic;html=1;" edge="1" parent="1">
          <mxGeometry width="50" height="50" relative="1" as="geometry">
            <mxPoint x="690" y="144.71000000000004" as="sourcePoint" />
            <mxPoint x="710" y="144.71000000000004" as="targetPoint" />
          </mxGeometry>
        </mxCell>
        <mxCell id="EQt62Dbtj5ZlUHY3P4BF-68" value="" style="endArrow=classic;html=1;" edge="1" parent="1">
          <mxGeometry width="50" height="50" relative="1" as="geometry">
            <mxPoint x="690" y="184.71000000000004" as="sourcePoint" />
            <mxPoint x="710" y="184.71000000000004" as="targetPoint" />
          </mxGeometry>
        </mxCell>
        <mxCell id="EQt62Dbtj5ZlUHY3P4BF-69" value="" style="endArrow=classic;html=1;" edge="1" parent="1">
          <mxGeometry width="50" height="50" relative="1" as="geometry">
            <mxPoint x="690" y="224.71000000000004" as="sourcePoint" />
            <mxPoint x="710" y="224.71000000000004" as="targetPoint" />
          </mxGeometry>
        </mxCell>
        <mxCell id="EQt62Dbtj5ZlUHY3P4BF-70" value="" style="endArrow=classic;html=1;" edge="1" parent="1">
          <mxGeometry width="50" height="50" relative="1" as="geometry">
            <mxPoint x="690" y="264.71000000000004" as="sourcePoint" />
            <mxPoint x="710" y="264.71000000000004" as="targetPoint" />
          </mxGeometry>
        </mxCell>
        <mxCell id="EQt62Dbtj5ZlUHY3P4BF-71" value="" style="endArrow=classic;html=1;" edge="1" parent="1">
          <mxGeometry width="50" height="50" relative="1" as="geometry">
            <mxPoint x="690" y="304.96000000000004" as="sourcePoint" />
            <mxPoint x="710" y="304.96000000000004" as="targetPoint" />
          </mxGeometry>
        </mxCell>
        <mxCell id="EQt62Dbtj5ZlUHY3P4BF-72" value="" style="endArrow=classic;html=1;" edge="1" parent="1">
          <mxGeometry width="50" height="50" relative="1" as="geometry">
            <mxPoint x="690" y="344.71000000000004" as="sourcePoint" />
            <mxPoint x="710" y="344.71000000000004" as="targetPoint" />
          </mxGeometry>
        </mxCell>
        <mxCell id="EQt62Dbtj5ZlUHY3P4BF-73" value="" style="endArrow=classic;html=1;" edge="1" parent="1">
          <mxGeometry width="50" height="50" relative="1" as="geometry">
            <mxPoint x="690" y="384.71000000000004" as="sourcePoint" />
            <mxPoint x="710" y="384.71000000000004" as="targetPoint" />
          </mxGeometry>
        </mxCell>
        <mxCell id="EQt62Dbtj5ZlUHY3P4BF-74" value="" style="endArrow=classic;html=1;" edge="1" parent="1">
          <mxGeometry width="50" height="50" relative="1" as="geometry">
            <mxPoint x="690" y="424.71000000000004" as="sourcePoint" />
            <mxPoint x="710" y="424.71000000000004" as="targetPoint" />
          </mxGeometry>
        </mxCell>
        <mxCell id="EQt62Dbtj5ZlUHY3P4BF-76" value="" style="endArrow=none;html=1;" edge="1" parent="1">
          <mxGeometry width="50" height="50" relative="1" as="geometry">
            <mxPoint x="690" y="430" as="sourcePoint" />
            <mxPoint x="690" y="140" as="targetPoint" />
          </mxGeometry>
        </mxCell>
        <mxCell id="EQt62Dbtj5ZlUHY3P4BF-77" value="" style="endArrow=none;html=1;" edge="1" parent="1">
          <mxGeometry width="50" height="50" relative="1" as="geometry">
            <mxPoint x="660" y="285" as="sourcePoint" />
            <mxPoint x="690" y="285" as="targetPoint" />
          </mxGeometry>
        </mxCell>
      </root>
    </mxGraphModel>
  </diagram>
</mxfile>
